<svg width="80" height="80" viewBox="0 0 80 80" fill="none" xmlns="http://www.w3.org/2000/svg">
<path d="M46.4372 68.6511H28.6139C23.9442 68.6511 20.1674 64.8744 20.1674 60.2046V33.693H54.8651V60.2232C54.8651 64.8744 51.0884 68.6511 46.4372 68.6511Z" stroke="#8E9991" stroke-width="2.23256" stroke-miterlimit="10" stroke-linecap="round" stroke-linejoin="round"/>
<path d="M31.4047 33.693H54.8837H60.6884C64.8 33.693 68.1488 37.0232 68.1488 41.1535V43.5162C68.1488 47.6465 64.8 50.9767 60.6884 50.9767H54.8837" stroke="#8E9991" stroke-width="2.23256" stroke-miterlimit="10" stroke-linecap="round" stroke-linejoin="round"/>
<path d="M11.8698 68.5209H63.1814" stroke="#121331" stroke-width="2.23256" stroke-miterlimit="10" stroke-linecap="round" stroke-linejoin="round"/>
<path d="M25.4884 27.0326C25.4884 27.0326 30.4744 27.386 30.7535 23.2744C31.0139 19.4046 28.5581 19.3302 26.0279 18.8093C24.3907 18.4744 23.7209 17.0791 23.4791 15.907C23.2744 14.9209 23.4046 13.8977 23.907 13.0233C24.4651 12.0372 25.5628 11.0698 27.7209 11.4046" stroke="#121331" stroke-width="2.23256" stroke-miterlimit="10" stroke-linecap="round" stroke-linejoin="round"/>
<path d="M37.2837 27.0326C37.2837 27.0326 42.2698 27.386 42.5488 23.2744C42.8093 19.4046 40.3535 19.3302 37.8232 18.8093C36.186 18.4744 35.5163 17.0791 35.2744 15.907C35.0698 14.9209 35.2 13.8977 35.7023 13.0233C36.2604 12.0372 37.3581 11.0698 39.5163 11.4046" stroke="#121331" stroke-width="2.23256" stroke-miterlimit="10" stroke-linecap="round" stroke-linejoin="round"/>
<path d="M49.0604 27.0326C49.0604 27.0326 54.0465 27.386 54.3256 23.2744C54.586 19.4046 52.1302 19.3302 49.6 18.8093C47.9628 18.4744 47.293 17.0791 47.0511 15.907C46.8465 14.9209 46.9767 13.8977 47.479 13.0233C48.0372 12.0372 49.1349 11.0698 51.293 11.4046" stroke="#121331" stroke-width="2.23256" stroke-miterlimit="10" stroke-linecap="round" stroke-linejoin="round"/>
</svg>
