<svg width="80" height="80" viewBox="0 0 80 80" fill="none" xmlns="http://www.w3.org/2000/svg">
<mask id="mask0_90_18568" style="mask-type:alpha" maskUnits="userSpaceOnUse" x="6" y="18" width="69" height="47">
<path d="M26.0465 18.9364V29.7675H53.9535V18.9364H74.053V64.8681H53.9535V55.814H26.0465V64.8681H6.11884V18.9364H26.0465Z" fill="#D9D9D9"/>
</mask>
<g mask="url(#mask0_90_18568)">
<path d="M66.3831 26.6735L71.6203 34.8203C72.2149 35.7452 72.3701 36.8854 72.0441 37.9353L64.9985 60.6378C64.5154 62.1947 63.075 63.2559 61.4448 63.2559H18.5552C16.925 63.2559 15.4846 62.1947 15.0015 60.6378L7.95588 37.9353C7.63004 36.8854 7.78517 35.7452 8.37964 34.8203L13.6169 26.6735C14.9862 24.5435 17.3447 23.2559 19.8768 23.2559H60.1232C62.6553 23.2559 65.0138 24.5435 66.3831 26.6735Z" stroke="#121331" stroke-width="2.23256" stroke-linejoin="round"/>
<path d="M8.3721 36.2792H71.6279" stroke="#121331" stroke-width="2.23256" stroke-linecap="round"/>
</g>
<path d="M26.0465 49.3024V70.6977H53.9535V49.3024" stroke="#8E9991" stroke-width="2.23256" stroke-linejoin="round"/>
<path d="M32.5581 56.7441H47.4419M32.5581 63.2558H47.4419" stroke="#8E9991" stroke-width="2.23256" stroke-linecap="round"/>
<path d="M16.4651 43.907C17.2357 43.907 17.8605 43.2823 17.8605 42.5117C17.8605 41.7411 17.2357 41.1163 16.4651 41.1163C15.6945 41.1163 15.0698 41.7411 15.0698 42.5117C15.0698 43.2823 15.6945 43.907 16.4651 43.907Z" fill="#8E9991"/>
<path d="M22.0465 43.907C22.8171 43.907 23.4419 43.2823 23.4419 42.5117C23.4419 41.7411 22.8171 41.1163 22.0465 41.1163C21.2759 41.1163 20.6512 41.7411 20.6512 42.5117C20.6512 43.2823 21.2759 43.907 22.0465 43.907Z" fill="#8E9991"/>
<path d="M53.9535 29.7674V8.37207H26.0465V29.7674" stroke="#8E9991" stroke-width="2.23256" stroke-linejoin="round"/>
<path d="M23.2558 49.3024H56.7442" stroke="#121331" stroke-width="2.23256" stroke-linecap="round"/>
<path d="M23.2558 29.7675H56.7442" stroke="#121331" stroke-width="2.23256" stroke-linecap="round"/>
</svg>
