<svg width="80" height="80" viewBox="0 0 80 80" fill="none" xmlns="http://www.w3.org/2000/svg">
<path d="M21.2024 10.4221C20.4071 9.30849 16.2709 13.2173 11.9985 19.1261C7.72599 25.0348 11.4758 37.034 20.3388 45.8973L34.1563 59.7146C43.0193 68.5777 54.9959 72.282 60.8592 67.9641C66.7224 63.6461 70.7222 59.6009 69.7905 58.9192C68.8588 58.2374 66.0407 56.192 63.4954 54.3285C60.9501 52.4649 58.2458 50.5105 57.4729 49.9425C56.7003 49.3743 54.5414 50.4197 52.6778 52.2832C50.8143 54.1468 48.6099 54.9648 47.7691 54.1241C46.9282 53.2832 42.1103 48.4653 36.997 43.352C31.9064 38.2614 26.9293 33.2843 25.9068 32.2618C24.8841 31.2391 25.5658 28.8982 27.4294 27.0348C29.2928 25.1712 30.2928 22.944 29.6566 22.0805C29.0201 21.1942 27.202 18.6943 25.5658 16.4672C23.9751 14.2627 22.0206 11.5356 21.2024 10.4221Z" stroke="#121331" stroke-width="2.23256" stroke-miterlimit="16" stroke-linecap="round" stroke-linejoin="round"/>
</svg>
