<svg width="80" height="80" viewBox="0 0 80 80" fill="none" xmlns="http://www.w3.org/2000/svg">
<path d="M24.186 53.9534C27.2686 53.9534 29.7674 51.4546 29.7674 48.372C29.7674 45.2894 27.2686 42.7906 24.186 42.7906C21.1034 42.7906 18.6046 45.2894 18.6046 48.372C18.6046 51.4546 21.1034 53.9534 24.186 53.9534Z" stroke="#121331" stroke-width="2.23256" stroke-miterlimit="10" stroke-linecap="round" stroke-linejoin="round"/>
<path d="M12.093 66.9767C12.093 62.3529 15.8413 58.6046 20.4651 58.6046H27.907C32.5308 58.6046 36.2791 62.3529 36.2791 66.9767V69.7674H12.093V66.9767Z" stroke="#121331" stroke-width="2.23256" stroke-linejoin="round"/>
<path d="M55.8139 53.9534C58.8965 53.9534 61.3953 51.4546 61.3953 48.372C61.3953 45.2894 58.8965 42.7906 55.8139 42.7906C52.7313 42.7906 50.2325 45.2894 50.2325 48.372C50.2325 51.4546 52.7313 53.9534 55.8139 53.9534Z" stroke="#121331" stroke-width="2.23256" stroke-miterlimit="10" stroke-linecap="round" stroke-linejoin="round"/>
<path d="M43.7209 66.9767C43.7209 62.3529 47.4692 58.6046 52.093 58.6046H59.5349C64.1587 58.6046 67.907 62.3529 67.907 66.9767V69.7674H43.7209V66.9767Z" stroke="#121331" stroke-width="2.23256" stroke-linejoin="round"/>
<mask id="mask0_90_18552" style="mask-type:alpha" maskUnits="userSpaceOnUse" x="7" y="5" width="41" height="33">
<path d="M47.4713 5.19702H7.69791V37.1025H47.4713V31.3375L46.5116 30.6977H38.1395C36.0845 30.6977 34.4186 29.0318 34.4186 26.9767V16.7442C34.4186 14.6892 36.0845 13.0232 38.1395 13.0232H47.4713V5.19702Z" fill="#D9D9D9"/>
</mask>
<g mask="url(#mask0_90_18552)">
<path d="M13.9535 8.37207C11.8985 8.37207 10.2326 10.038 10.2326 12.093V23.2558C10.2326 25.3109 11.8985 26.9767 13.9535 26.9767H22.3256V34.4186L33.4884 26.9767H41.8605C43.9155 26.9767 45.5814 25.3109 45.5814 23.2558V12.093C45.5814 10.038 43.9155 8.37207 41.8605 8.37207H13.9535Z" stroke="#8E9991" stroke-width="2.23256" stroke-miterlimit="10" stroke-linecap="round" stroke-linejoin="round"/>
</g>
<path d="M38.1395 13.0233C36.0845 13.0233 34.4186 14.6892 34.4186 16.7442V26.9768C34.4186 29.0319 36.0845 30.6977 38.1395 30.6977H46.5116L57.6744 38.1396V30.6977H66.0465C68.1016 30.6977 69.7674 29.0319 69.7674 26.9768V16.7442C69.7674 14.6892 68.1016 13.0233 66.0465 13.0233H38.1395Z" stroke="#8E9991" stroke-width="2.23256" stroke-miterlimit="10" stroke-linecap="round" stroke-linejoin="round"/>
</svg>
