<svg width="80" height="80" viewBox="0 0 80 80" fill="none" xmlns="http://www.w3.org/2000/svg">
<path d="M28.3721 25.6187H34.9954H45.414H52" stroke="#1C1C1C" stroke-width="2.23256" stroke-miterlimit="10" stroke-linecap="round" stroke-linejoin="round"/>
<path d="M23.8886 54.6791H22.1583C19.7955 54.6791 17.8979 52.7628 17.8979 50.4V29.8791C17.8979 27.5163 19.8141 25.6187 22.1583 25.6187H23.8886" stroke="#1C1C1C" stroke-width="2.23256" stroke-miterlimit="10" stroke-linecap="round" stroke-linejoin="round"/>
<path d="M56.4837 25.6187H57.9535C60.3163 25.6187 62.2326 27.5349 62.2326 29.8791V50.4C62.2326 52.7628 60.3163 54.6791 57.9535 54.6791H56.4837" stroke="#1C1C1C" stroke-width="2.23256" stroke-miterlimit="10" stroke-linecap="round" stroke-linejoin="round"/>
<path d="M52 54.6791H28.3721" stroke="#1C1C1C" stroke-width="2.23256" stroke-miterlimit="10" stroke-linecap="round" stroke-linejoin="round"/>
<path d="M28.3721 24.5023H23.8884V55.7953H28.3721V24.5023Z" stroke="#D8BEA0" stroke-width="2.23256" stroke-miterlimit="10" stroke-linecap="round" stroke-linejoin="round"/>
<path d="M56.4837 24.5023H52V55.7953H56.4837V24.5023Z" stroke="#D8BEA0" stroke-width="2.23256" stroke-miterlimit="10" stroke-linecap="round" stroke-linejoin="round"/>
<path d="M34.9767 25.6187V23.6094C34.9767 22.1768 36.1302 21.0233 37.5628 21.0233H42.8279C44.2605 21.0233 45.414 22.1768 45.414 23.6094V25.6001" stroke="#1C1C1C" stroke-width="2.23256" stroke-miterlimit="10" stroke-linecap="round" stroke-linejoin="round"/>
<path d="M45.414 31.9442H34.9767V36.9675H45.414V31.9442Z" stroke="#1C1C1C" stroke-width="2.23256" stroke-miterlimit="10" stroke-linecap="round" stroke-linejoin="round"/>
<path d="M10.27 52.2977V16.0558C10.27 14.7907 11.2932 13.7675 12.5584 13.7675H67.5537C68.8188 13.7675 69.842 14.7907 69.842 16.0558V61.1349C69.842 62.4 68.8188 63.4233 67.5537 63.4233H40.2979" stroke="#1C1C1C" stroke-width="2.23256" stroke-miterlimit="10" stroke-linecap="round" stroke-linejoin="round"/>
<path d="M18.8651 61.0232C17.935 58.7349 15.721 57.079 13.0791 57.0046C9.54426 56.9302 6.60473 59.7209 6.5117 63.2558C6.41868 66.7907 9.20938 69.7302 12.7443 69.8232C15.4978 69.8977 17.8791 68.2232 18.8465 65.8046H33.0419L34.9767 63.4232L33.0605 61.0232H18.8651Z" stroke="#D8BEA0" stroke-width="2.23256" stroke-miterlimit="10" stroke-linecap="round" stroke-linejoin="round"/>
<path d="M30.6046 64.7628V65.8047" stroke="#D8BEA0" stroke-width="2.23256" stroke-miterlimit="10" stroke-linecap="round" stroke-linejoin="round"/>
<path d="M27.7583 64.7628V65.8047" stroke="#D8BEA0" stroke-width="2.23256" stroke-miterlimit="10" stroke-linecap="round" stroke-linejoin="round"/>
<path d="M24.8932 64.7628V65.8047" stroke="#D8BEA0" stroke-width="2.23256" stroke-miterlimit="10" stroke-linecap="round" stroke-linejoin="round"/>
<path d="M10.7442 63.4348H10.7628" stroke="#D8BEA0" stroke-width="2.23256" stroke-miterlimit="10" stroke-linecap="round" stroke-linejoin="round"/>
</svg>
