<svg width="80" height="80" viewBox="0 0 80 80" fill="none" xmlns="http://www.w3.org/2000/svg">
<path d="M50.2884 38.0837C57.6744 38.8651 63.7023 40.4651 67.0512 42.5303" stroke="#D8BEA0" stroke-width="2.23256" stroke-miterlimit="10" stroke-linecap="round" stroke-linejoin="round"/>
<path d="M13.0977 42.5116C17.8791 39.5721 28.1674 37.5442 40.0558 37.5442C41.3767 37.5442 42.6604 37.5628 43.9442 37.6186" stroke="#D8BEA0" stroke-width="2.23256" stroke-miterlimit="10" stroke-linecap="round" stroke-linejoin="round"/>
<path d="M10.2697 38.4C10.2511 38.4372 10.2511 38.4744 10.2511 38.5116C10.2511 38.6976 10.2511 38.9023 10.2511 39.1255C10.3069 41.6186 10.6046 45.6558 11.5348 48.6511C12.4464 51.6465 13.7674 54.1953 15.1813 56.3348C17.6744 60.0744 20.5023 62.5488 22.1954 63.8697V68.093C27.1814 69.172 33.3581 69.8232 40.0744 69.8232C46.7907 69.8232 52.9861 69.172 57.9907 68.0744V63.8697C59.6651 62.5488 62.493 60.0744 64.9675 56.3348C66.4 54.1953 67.7023 51.6279 68.614 48.6325C69.5256 45.6372 69.8419 41.6 69.8977 39.1069C69.8977 38.8837 69.8977 38.679 69.8977 38.493C69.8977 38.4558 69.8977 38.4186 69.8977 38.3813H69.8791" stroke="#1C1C1C" stroke-width="2.23256" stroke-miterlimit="10" stroke-linecap="round" stroke-linejoin="round"/>
<path d="M47.5163 30.3814C45.1349 30.2139 42.6418 30.1023 40.0744 30.1023C24.0372 30.1023 10.9581 33.786 10.2698 38.4C10.2698 38.4372 10.2511 38.4744 10.2511 38.5116C10.2511 38.6046 10.2325 38.6976 10.2325 38.7907C10.2325 38.9023 10.2325 39.0139 10.2511 39.1256C10.8651 43.7581 23.9814 47.479 40.0744 47.479C56.1674 47.479 69.2837 43.7767 69.8977 39.1256C69.9163 39.0139 69.9163 38.9023 69.9163 38.7907C69.9163 38.6976 69.9163 38.6046 69.8977 38.5116C69.8977 38.4744 69.8977 38.4372 69.8791 38.4C69.4139 35.3302 63.4791 32.6883 54.8651 31.2372" stroke="#1C1C1C" stroke-width="2.23256" stroke-miterlimit="10" stroke-linecap="round" stroke-linejoin="round"/>
<path d="M64.9116 14.8838C64.9116 15.7768 64.6512 16.6698 64.1302 17.4698L48.1488 41.2651H42.1768L56.1116 12.8373C57.3023 10.4186 60.2605 9.50702 62.6047 10.8466C64.093 11.721 64.9116 13.2838 64.9116 14.8838Z" stroke="#1C1C1C" stroke-width="2.23256" stroke-miterlimit="10" stroke-linecap="round" stroke-linejoin="round"/>
<path d="M21.6372 15.2186C21.6372 17.2837 20.4837 17.2837 20.4837 19.3488C20.4837 21.414 21.6372 21.414 21.6372 23.4977C21.6372 25.5628 20.4837 25.5628 20.4837 27.6465" stroke="#D8BEA0" stroke-width="2.23256" stroke-miterlimit="10" stroke-linecap="round" stroke-linejoin="round"/>
<path d="M31.5163 10.2325C31.5163 12.7256 30.1395 12.7256 30.1395 15.2C30.1395 17.693 31.5163 17.693 31.5163 20.1674C31.5163 22.6604 30.1395 22.6604 30.1395 25.1349" stroke="#D8BEA0" stroke-width="2.23256" stroke-miterlimit="10" stroke-linecap="round" stroke-linejoin="round"/>
</svg>
