<svg width="80" height="80" viewBox="0 0 80 80" fill="none" xmlns="http://www.w3.org/2000/svg">
<g clip-path="url(#clip0_90_18549)">
<mask id="mask0_90_18549" style="mask-type:luminance" maskUnits="userSpaceOnUse" x="0" y="0" width="80" height="80">
<path d="M0 0H80V80H0V0Z" fill="white"/>
</mask>
<g mask="url(#mask0_90_18549)">
<mask id="mask1_90_18549" style="mask-type:luminance" maskUnits="userSpaceOnUse" x="-1" y="0" width="81" height="80">
<path d="M-0.0122781 0H79.9877V80H-0.0122781V0Z" fill="white"/>
</mask>
<g mask="url(#mask1_90_18549)">
<path d="M4.32562 32.2003C23.9992 12.5268 55.8967 12.5268 75.5702 32.2003" stroke="#1C1C1C" stroke-width="2.48744" stroke-linecap="round" stroke-linejoin="round"/>
<path d="M12.5164 39.5596C27.6877 24.3691 52.2871 24.3691 67.4583 39.5596" stroke="#1C1C1C" stroke-width="2.48744" stroke-linecap="round" stroke-linejoin="round"/>
<path d="M20.7179 46.7532C31.3591 36.0067 48.6113 36.0067 59.2519 46.7532" stroke="#1C1C1C" stroke-width="2.48744" stroke-linecap="round" stroke-linejoin="round"/>
<path d="M47.4394 57.0349C47.4394 61.1506 44.1034 64.4866 39.9877 64.4866C35.8721 64.4866 32.5361 61.1506 32.5361 57.0349C32.5361 52.9193 35.8721 49.584 39.9877 49.584C44.1034 49.584 47.4394 52.9193 47.4394 57.0349Z" stroke="#D8BEA0" stroke-width="2.48744" stroke-linecap="round" stroke-linejoin="round"/>
</g>
</g>
</g>
<defs>
<clipPath id="clip0_90_18549">
<rect width="80" height="80" fill="white"/>
</clipPath>
</defs>
</svg>
