<svg width="306" height="2921" viewBox="0 0 306 2921" fill="none" xmlns="http://www.w3.org/2000/svg">
<path d="M30.5 23.5L0 40V18L30.5 1V23.5ZM30.5 23.5V40L53 28V11.5L30.5 23.5ZM93.5 23.5L63 40V18L93.5 1V23.5ZM93.5 23.5V40L116 28V11.5L93.5 23.5ZM156.5 23.5L126 40V18L156.5 1V23.5ZM156.5 23.5V40L179 28V11.5L156.5 23.5ZM219.5 23.5L189 40V18L219.5 1V23.5ZM219.5 23.5V40L242 28V11.5L219.5 23.5ZM282.5 23.5L252 40V18L282.5 1V23.5ZM282.5 23.5V40L305 28V11.5L282.5 23.5ZM30.5 72.5L0 89V67L30.5 50V72.5ZM30.5 72.5V89L53 77V60.5L30.5 72.5ZM93.5 72.5L63 89V67L93.5 50V72.5ZM93.5 72.5V89L116 77V60.5L93.5 72.5ZM156.5 72.5L126 89V67L156.5 50V72.5ZM156.5 72.5V89L179 77V60.5L156.5 72.5ZM219.5 72.5L189 89V67L219.5 50V72.5ZM219.5 72.5V89L242 77V60.5L219.5 72.5ZM282.5 72.5L252 89V67L282.5 50V72.5ZM282.5 72.5V89L305 77V60.5L282.5 72.5ZM30.5 121.5L0 138V116L30.5 99V121.5ZM30.5 121.5V138L53 126V109.5L30.5 121.5ZM93.5 121.5L63 138V116L93.5 99V121.5ZM93.5 121.5V138L116 126V109.5L93.5 121.5ZM156.5 121.5L126 138V116L156.5 99V121.5ZM156.5 121.5V138L179 126V109.5L156.5 121.5ZM219.5 121.5L189 138V116L219.5 99V121.5ZM219.5 121.5V138L242 126V109.5L219.5 121.5ZM282.5 121.5L252 138V116L282.5 99V121.5ZM282.5 121.5V138L305 126V109.5L282.5 121.5ZM30.5 170.5L0 187V165L30.5 148V170.5ZM30.5 170.5V187L53 175V158.5L30.5 170.5ZM93.5 170.5L63 187V165L93.5 148V170.5ZM93.5 170.5V187L116 175V158.5L93.5 170.5ZM156.5 170.5L126 187V165L156.5 148V170.5ZM156.5 170.5V187L179 175V158.5L156.5 170.5ZM219.5 170.5L189 187V165L219.5 148V170.5ZM219.5 170.5V187L242 175V158.5L219.5 170.5ZM282.5 170.5L252 187V165L282.5 148V170.5ZM282.5 170.5V187L305 175V158.5L282.5 170.5ZM30.5 219.5L0 236V214L30.5 197V219.5ZM30.5 219.5V236L53 224V207.5L30.5 219.5ZM93.5 219.5L63 236V214L93.5 197V219.5ZM93.5 219.5V236L116 224V207.5L93.5 219.5ZM156.5 219.5L126 236V214L156.5 197V219.5ZM156.5 219.5V236L179 224V207.5L156.5 219.5ZM219.5 219.5L189 236V214L219.5 197V219.5ZM219.5 219.5V236L242 224V207.5L219.5 219.5ZM282.5 219.5L252 236V214L282.5 197V219.5ZM282.5 219.5V236L305 224V207.5L282.5 219.5ZM30.5 268.5L0 285V263L30.5 246V268.5ZM30.5 268.5V285L53 273V256.5L30.5 268.5ZM93.5 268.5L63 285V263L93.5 246V268.5ZM93.5 268.5V285L116 273V256.5L93.5 268.5ZM156.5 268.5L126 285V263L156.5 246V268.5ZM156.5 268.5V285L179 273V256.5L156.5 268.5ZM219.5 268.5L189 285V263L219.5 246V268.5ZM219.5 268.5V285L242 273V256.5L219.5 268.5ZM282.5 268.5L252 285V263L282.5 246V268.5ZM282.5 268.5V285L305 273V256.5L282.5 268.5ZM30.5 317.5L0 334V312L30.5 295V317.5ZM30.5 317.5V334L53 322V305.5L30.5 317.5ZM93.5 317.5L63 334V312L93.5 295V317.5ZM93.5 317.5V334L116 322V305.5L93.5 317.5ZM156.5 317.5L126 334V312L156.5 295V317.5ZM156.5 317.5V334L179 322V305.5L156.5 317.5ZM219.5 317.5L189 334V312L219.5 295V317.5ZM219.5 317.5V334L242 322V305.5L219.5 317.5ZM282.5 317.5L252 334V312L282.5 295V317.5ZM282.5 317.5V334L305 322V305.5L282.5 317.5ZM30.5 366.5L0 383V361L30.5 344V366.5ZM30.5 366.5V383L53 371V354.5L30.5 366.5ZM93.5 366.5L63 383V361L93.5 344V366.5ZM93.5 366.5V383L116 371V354.5L93.5 366.5ZM156.5 366.5L126 383V361L156.5 344V366.5ZM156.5 366.5V383L179 371V354.5L156.5 366.5ZM219.5 366.5L189 383V361L219.5 344V366.5ZM219.5 366.5V383L242 371V354.5L219.5 366.5ZM282.5 366.5L252 383V361L282.5 344V366.5ZM282.5 366.5V383L305 371V354.5L282.5 366.5ZM30.5 415.5L0 432V410L30.5 393V415.5ZM30.5 415.5V432L53 420V403.5L30.5 415.5ZM93.5 415.5L63 432V410L93.5 393V415.5ZM93.5 415.5V432L116 420V403.5L93.5 415.5ZM156.5 415.5L126 432V410L156.5 393V415.5ZM156.5 415.5V432L179 420V403.5L156.5 415.5ZM219.5 415.5L189 432V410L219.5 393V415.5ZM219.5 415.5V432L242 420V403.5L219.5 415.5ZM282.5 415.5L252 432V410L282.5 393V415.5ZM282.5 415.5V432L305 420V403.5L282.5 415.5ZM30.5 464.5L0 481V459L30.5 442V464.5ZM30.5 464.5V481L53 469V452.5L30.5 464.5ZM93.5 464.5L63 481V459L93.5 442V464.5ZM93.5 464.5V481L116 469V452.5L93.5 464.5ZM156.5 464.5L126 481V459L156.5 442V464.5ZM156.5 464.5V481L179 469V452.5L156.5 464.5ZM219.5 464.5L189 481V459L219.5 442V464.5ZM219.5 464.5V481L242 469V452.5L219.5 464.5ZM282.5 464.5L252 481V459L282.5 442V464.5ZM282.5 464.5V481L305 469V452.5L282.5 464.5Z" stroke="#E1E1E1"/>
<path d="M30.5 513.5L0 530V508L30.5 491V513.5ZM30.5 513.5V530L53 518V501.5L30.5 513.5ZM93.5 513.5L63 530V508L93.5 491V513.5ZM93.5 513.5V530L116 518V501.5L93.5 513.5ZM156.5 513.5L126 530V508L156.5 491V513.5ZM156.5 513.5V530L179 518V501.5L156.5 513.5ZM219.5 513.5L189 530V508L219.5 491V513.5ZM219.5 513.5V530L242 518V501.5L219.5 513.5ZM282.5 513.5L252 530V508L282.5 491V513.5ZM282.5 513.5V530L305 518V501.5L282.5 513.5ZM30.5 562.5L0 579V557L30.5 540V562.5ZM30.5 562.5V579L53 567V550.5L30.5 562.5ZM93.5 562.5L63 579V557L93.5 540V562.5ZM93.5 562.5V579L116 567V550.5L93.5 562.5ZM156.5 562.5L126 579V557L156.5 540V562.5ZM156.5 562.5V579L179 567V550.5L156.5 562.5ZM219.5 562.5L189 579V557L219.5 540V562.5ZM219.5 562.5V579L242 567V550.5L219.5 562.5ZM282.5 562.5L252 579V557L282.5 540V562.5ZM282.5 562.5V579L305 567V550.5L282.5 562.5ZM30.5 611.5L0 628V606L30.5 589V611.5ZM30.5 611.5V628L53 616V599.5L30.5 611.5ZM93.5 611.5L63 628V606L93.5 589V611.5ZM93.5 611.5V628L116 616V599.5L93.5 611.5ZM156.5 611.5L126 628V606L156.5 589V611.5ZM156.5 611.5V628L179 616V599.5L156.5 611.5ZM219.5 611.5L189 628V606L219.5 589V611.5ZM219.5 611.5V628L242 616V599.5L219.5 611.5ZM282.5 611.5L252 628V606L282.5 589V611.5ZM282.5 611.5V628L305 616V599.5L282.5 611.5ZM30.5 660.5L0 677V655L30.5 638V660.5ZM30.5 660.5V677L53 665V648.5L30.5 660.5ZM93.5 660.5L63 677V655L93.5 638V660.5ZM93.5 660.5V677L116 665V648.5L93.5 660.5ZM156.5 660.5L126 677V655L156.5 638V660.5ZM156.5 660.5V677L179 665V648.5L156.5 660.5ZM219.5 660.5L189 677V655L219.5 638V660.5ZM219.5 660.5V677L242 665V648.5L219.5 660.5ZM282.5 660.5L252 677V655L282.5 638V660.5ZM282.5 660.5V677L305 665V648.5L282.5 660.5ZM30.5 709.5L0 726V704L30.5 687V709.5ZM30.5 709.5V726L53 714V697.5L30.5 709.5ZM93.5 709.5L63 726V704L93.5 687V709.5ZM93.5 709.5V726L116 714V697.5L93.5 709.5ZM156.5 709.5L126 726V704L156.5 687V709.5ZM156.5 709.5V726L179 714V697.5L156.5 709.5ZM219.5 709.5L189 726V704L219.5 687V709.5ZM219.5 709.5V726L242 714V697.5L219.5 709.5ZM282.5 709.5L252 726V704L282.5 687V709.5ZM282.5 709.5V726L305 714V697.5L282.5 709.5ZM30.5 758.5L0 775V753L30.5 736V758.5ZM30.5 758.5V775L53 763V746.5L30.5 758.5ZM93.5 758.5L63 775V753L93.5 736V758.5ZM93.5 758.5V775L116 763V746.5L93.5 758.5ZM156.5 758.5L126 775V753L156.5 736V758.5ZM156.5 758.5V775L179 763V746.5L156.5 758.5ZM219.5 758.5L189 775V753L219.5 736V758.5ZM219.5 758.5V775L242 763V746.5L219.5 758.5ZM282.5 758.5L252 775V753L282.5 736V758.5ZM282.5 758.5V775L305 763V746.5L282.5 758.5ZM30.5 807.5L0 824V802L30.5 785V807.5ZM30.5 807.5V824L53 812V795.5L30.5 807.5ZM93.5 807.5L63 824V802L93.5 785V807.5ZM93.5 807.5V824L116 812V795.5L93.5 807.5ZM156.5 807.5L126 824V802L156.5 785V807.5ZM156.5 807.5V824L179 812V795.5L156.5 807.5ZM219.5 807.5L189 824V802L219.5 785V807.5ZM219.5 807.5V824L242 812V795.5L219.5 807.5ZM282.5 807.5L252 824V802L282.5 785V807.5ZM282.5 807.5V824L305 812V795.5L282.5 807.5ZM30.5 856.5L0 873V851L30.5 834V856.5ZM30.5 856.5V873L53 861V844.5L30.5 856.5ZM93.5 856.5L63 873V851L93.5 834V856.5ZM93.5 856.5V873L116 861V844.5L93.5 856.5ZM156.5 856.5L126 873V851L156.5 834V856.5ZM156.5 856.5V873L179 861V844.5L156.5 856.5ZM219.5 856.5L189 873V851L219.5 834V856.5ZM219.5 856.5V873L242 861V844.5L219.5 856.5ZM282.5 856.5L252 873V851L282.5 834V856.5ZM282.5 856.5V873L305 861V844.5L282.5 856.5ZM30.5 905.5L0 922V900L30.5 883V905.5ZM30.5 905.5V922L53 910V893.5L30.5 905.5ZM93.5 905.5L63 922V900L93.5 883V905.5ZM93.5 905.5V922L116 910V893.5L93.5 905.5ZM156.5 905.5L126 922V900L156.5 883V905.5ZM156.5 905.5V922L179 910V893.5L156.5 905.5ZM219.5 905.5L189 922V900L219.5 883V905.5ZM219.5 905.5V922L242 910V893.5L219.5 905.5ZM282.5 905.5L252 922V900L282.5 883V905.5ZM282.5 905.5V922L305 910V893.5L282.5 905.5ZM30.5 954.5L0 971V949L30.5 932V954.5ZM30.5 954.5V971L53 959V942.5L30.5 954.5ZM93.5 954.5L63 971V949L93.5 932V954.5ZM93.5 954.5V971L116 959V942.5L93.5 954.5ZM156.5 954.5L126 971V949L156.5 932V954.5ZM156.5 954.5V971L179 959V942.5L156.5 954.5ZM219.5 954.5L189 971V949L219.5 932V954.5ZM219.5 954.5V971L242 959V942.5L219.5 954.5ZM282.5 954.5L252 971V949L282.5 932V954.5ZM282.5 954.5V971L305 959V942.5L282.5 954.5Z" stroke="#E1E1E1"/>
<path d="M30.5 1003.5L0 1020V998L30.5 981V1003.5ZM30.5 1003.5V1020L53 1008V991.5L30.5 1003.5ZM93.5 1003.5L63 1020V998L93.5 981V1003.5ZM93.5 1003.5V1020L116 1008V991.5L93.5 1003.5ZM156.5 1003.5L126 1020V998L156.5 981V1003.5ZM156.5 1003.5V1020L179 1008V991.5L156.5 1003.5ZM219.5 1003.5L189 1020V998L219.5 981V1003.5ZM219.5 1003.5V1020L242 1008V991.5L219.5 1003.5ZM282.5 1003.5L252 1020V998L282.5 981V1003.5ZM282.5 1003.5V1020L305 1008V991.5L282.5 1003.5ZM30.5 1052.5L0 1069V1047L30.5 1030V1052.5ZM30.5 1052.5V1069L53 1057V1040.5L30.5 1052.5ZM93.5 1052.5L63 1069V1047L93.5 1030V1052.5ZM93.5 1052.5V1069L116 1057V1040.5L93.5 1052.5ZM156.5 1052.5L126 1069V1047L156.5 1030V1052.5ZM156.5 1052.5V1069L179 1057V1040.5L156.5 1052.5ZM219.5 1052.5L189 1069V1047L219.5 1030V1052.5ZM219.5 1052.5V1069L242 1057V1040.5L219.5 1052.5ZM282.5 1052.5L252 1069V1047L282.5 1030V1052.5ZM282.5 1052.5V1069L305 1057V1040.5L282.5 1052.5ZM30.5 1101.5L0 1118V1096L30.5 1079V1101.5ZM30.5 1101.5V1118L53 1106V1089.5L30.5 1101.5ZM93.5 1101.5L63 1118V1096L93.5 1079V1101.5ZM93.5 1101.5V1118L116 1106V1089.5L93.5 1101.5ZM156.5 1101.5L126 1118V1096L156.5 1079V1101.5ZM156.5 1101.5V1118L179 1106V1089.5L156.5 1101.5ZM219.5 1101.5L189 1118V1096L219.5 1079V1101.5ZM219.5 1101.5V1118L242 1106V1089.5L219.5 1101.5ZM282.5 1101.5L252 1118V1096L282.5 1079V1101.5ZM282.5 1101.5V1118L305 1106V1089.5L282.5 1101.5ZM30.5 1150.5L0 1167V1145L30.5 1128V1150.5ZM30.5 1150.5V1167L53 1155V1138.5L30.5 1150.5ZM93.5 1150.5L63 1167V1145L93.5 1128V1150.5ZM93.5 1150.5V1167L116 1155V1138.5L93.5 1150.5ZM156.5 1150.5L126 1167V1145L156.5 1128V1150.5ZM156.5 1150.5V1167L179 1155V1138.5L156.5 1150.5ZM219.5 1150.5L189 1167V1145L219.5 1128V1150.5ZM219.5 1150.5V1167L242 1155V1138.5L219.5 1150.5ZM282.5 1150.5L252 1167V1145L282.5 1128V1150.5ZM282.5 1150.5V1167L305 1155V1138.5L282.5 1150.5ZM30.5 1199.5L0 1216V1194L30.5 1177V1199.5ZM30.5 1199.5V1216L53 1204V1187.5L30.5 1199.5ZM93.5 1199.5L63 1216V1194L93.5 1177V1199.5ZM93.5 1199.5V1216L116 1204V1187.5L93.5 1199.5ZM156.5 1199.5L126 1216V1194L156.5 1177V1199.5ZM156.5 1199.5V1216L179 1204V1187.5L156.5 1199.5ZM219.5 1199.5L189 1216V1194L219.5 1177V1199.5ZM219.5 1199.5V1216L242 1204V1187.5L219.5 1199.5ZM282.5 1199.5L252 1216V1194L282.5 1177V1199.5ZM282.5 1199.5V1216L305 1204V1187.5L282.5 1199.5ZM30.5 1248.5L0 1265V1243L30.5 1226V1248.5ZM30.5 1248.5V1265L53 1253V1236.5L30.5 1248.5ZM93.5 1248.5L63 1265V1243L93.5 1226V1248.5ZM93.5 1248.5V1265L116 1253V1236.5L93.5 1248.5ZM156.5 1248.5L126 1265V1243L156.5 1226V1248.5ZM156.5 1248.5V1265L179 1253V1236.5L156.5 1248.5ZM219.5 1248.5L189 1265V1243L219.5 1226V1248.5ZM219.5 1248.5V1265L242 1253V1236.5L219.5 1248.5ZM282.5 1248.5L252 1265V1243L282.5 1226V1248.5ZM282.5 1248.5V1265L305 1253V1236.5L282.5 1248.5ZM30.5 1297.5L0 1314V1292L30.5 1275V1297.5ZM30.5 1297.5V1314L53 1302V1285.5L30.5 1297.5ZM93.5 1297.5L63 1314V1292L93.5 1275V1297.5ZM93.5 1297.5V1314L116 1302V1285.5L93.5 1297.5ZM156.5 1297.5L126 1314V1292L156.5 1275V1297.5ZM156.5 1297.5V1314L179 1302V1285.5L156.5 1297.5ZM219.5 1297.5L189 1314V1292L219.5 1275V1297.5ZM219.5 1297.5V1314L242 1302V1285.5L219.5 1297.5ZM282.5 1297.5L252 1314V1292L282.5 1275V1297.5ZM282.5 1297.5V1314L305 1302V1285.5L282.5 1297.5ZM30.5 1346.5L0 1363V1341L30.5 1324V1346.5ZM30.5 1346.5V1363L53 1351V1334.5L30.5 1346.5ZM93.5 1346.5L63 1363V1341L93.5 1324V1346.5ZM93.5 1346.5V1363L116 1351V1334.5L93.5 1346.5ZM156.5 1346.5L126 1363V1341L156.5 1324V1346.5ZM156.5 1346.5V1363L179 1351V1334.5L156.5 1346.5ZM219.5 1346.5L189 1363V1341L219.5 1324V1346.5ZM219.5 1346.5V1363L242 1351V1334.5L219.5 1346.5ZM282.5 1346.5L252 1363V1341L282.5 1324V1346.5ZM282.5 1346.5V1363L305 1351V1334.5L282.5 1346.5ZM30.5 1395.5L0 1412V1390L30.5 1373V1395.5ZM30.5 1395.5V1412L53 1400V1383.5L30.5 1395.5ZM93.5 1395.5L63 1412V1390L93.5 1373V1395.5ZM93.5 1395.5V1412L116 1400V1383.5L93.5 1395.5ZM156.5 1395.5L126 1412V1390L156.5 1373V1395.5ZM156.5 1395.5V1412L179 1400V1383.5L156.5 1395.5ZM219.5 1395.5L189 1412V1390L219.5 1373V1395.5ZM219.5 1395.5V1412L242 1400V1383.5L219.5 1395.5ZM282.5 1395.5L252 1412V1390L282.5 1373V1395.5ZM282.5 1395.5V1412L305 1400V1383.5L282.5 1395.5ZM30.5 1444.5L0 1461V1439L30.5 1422V1444.5ZM30.5 1444.5V1461L53 1449V1432.5L30.5 1444.5ZM93.5 1444.5L63 1461V1439L93.5 1422V1444.5ZM93.5 1444.5V1461L116 1449V1432.5L93.5 1444.5ZM156.5 1444.5L126 1461V1439L156.5 1422V1444.5ZM156.5 1444.5V1461L179 1449V1432.5L156.5 1444.5ZM219.5 1444.5L189 1461V1439L219.5 1422V1444.5ZM219.5 1444.5V1461L242 1449V1432.5L219.5 1444.5ZM282.5 1444.5L252 1461V1439L282.5 1422V1444.5ZM282.5 1444.5V1461L305 1449V1432.5L282.5 1444.5Z" stroke="#E1E1E1"/>
<path d="M30.5 1493.5L0 1510V1488L30.5 1471V1493.5ZM30.5 1493.5V1510L53 1498V1481.5L30.5 1493.5ZM93.5 1493.5L63 1510V1488L93.5 1471V1493.5ZM93.5 1493.5V1510L116 1498V1481.5L93.5 1493.5ZM156.5 1493.5L126 1510V1488L156.5 1471V1493.5ZM156.5 1493.5V1510L179 1498V1481.5L156.5 1493.5ZM219.5 1493.5L189 1510V1488L219.5 1471V1493.5ZM219.5 1493.5V1510L242 1498V1481.5L219.5 1493.5ZM282.5 1493.5L252 1510V1488L282.5 1471V1493.5ZM282.5 1493.5V1510L305 1498V1481.5L282.5 1493.5ZM30.5 1542.5L0 1559V1537L30.5 1520V1542.5ZM30.5 1542.5V1559L53 1547V1530.5L30.5 1542.5ZM93.5 1542.5L63 1559V1537L93.5 1520V1542.5ZM93.5 1542.5V1559L116 1547V1530.5L93.5 1542.5ZM156.5 1542.5L126 1559V1537L156.5 1520V1542.5ZM156.5 1542.5V1559L179 1547V1530.5L156.5 1542.5ZM219.5 1542.5L189 1559V1537L219.5 1520V1542.5ZM219.5 1542.5V1559L242 1547V1530.5L219.5 1542.5ZM282.5 1542.5L252 1559V1537L282.5 1520V1542.5ZM282.5 1542.5V1559L305 1547V1530.5L282.5 1542.5ZM30.5 1591.5L0 1608V1586L30.5 1569V1591.5ZM30.5 1591.5V1608L53 1596V1579.5L30.5 1591.5ZM93.5 1591.5L63 1608V1586L93.5 1569V1591.5ZM93.5 1591.5V1608L116 1596V1579.5L93.5 1591.5ZM156.5 1591.5L126 1608V1586L156.5 1569V1591.5ZM156.5 1591.5V1608L179 1596V1579.5L156.5 1591.5ZM219.5 1591.5L189 1608V1586L219.5 1569V1591.5ZM219.5 1591.5V1608L242 1596V1579.5L219.5 1591.5ZM282.5 1591.5L252 1608V1586L282.5 1569V1591.5ZM282.5 1591.5V1608L305 1596V1579.5L282.5 1591.5ZM30.5 1640.5L0 1657V1635L30.5 1618V1640.5ZM30.5 1640.5V1657L53 1645V1628.5L30.5 1640.5ZM93.5 1640.5L63 1657V1635L93.5 1618V1640.5ZM93.5 1640.5V1657L116 1645V1628.5L93.5 1640.5ZM156.5 1640.5L126 1657V1635L156.5 1618V1640.5ZM156.5 1640.5V1657L179 1645V1628.5L156.5 1640.5ZM219.5 1640.5L189 1657V1635L219.5 1618V1640.5ZM219.5 1640.5V1657L242 1645V1628.5L219.5 1640.5ZM282.5 1640.5L252 1657V1635L282.5 1618V1640.5ZM282.5 1640.5V1657L305 1645V1628.5L282.5 1640.5ZM30.5 1689.5L0 1706V1684L30.5 1667V1689.5ZM30.5 1689.5V1706L53 1694V1677.5L30.5 1689.5ZM93.5 1689.5L63 1706V1684L93.5 1667V1689.5ZM93.5 1689.5V1706L116 1694V1677.5L93.5 1689.5ZM156.5 1689.5L126 1706V1684L156.5 1667V1689.5ZM156.5 1689.5V1706L179 1694V1677.5L156.5 1689.5ZM219.5 1689.5L189 1706V1684L219.5 1667V1689.5ZM219.5 1689.5V1706L242 1694V1677.5L219.5 1689.5ZM282.5 1689.5L252 1706V1684L282.5 1667V1689.5ZM282.5 1689.5V1706L305 1694V1677.5L282.5 1689.5ZM30.5 1738.5L0 1755V1733L30.5 1716V1738.5ZM30.5 1738.5V1755L53 1743V1726.5L30.5 1738.5ZM93.5 1738.5L63 1755V1733L93.5 1716V1738.5ZM93.5 1738.5V1755L116 1743V1726.5L93.5 1738.5ZM156.5 1738.5L126 1755V1733L156.5 1716V1738.5ZM156.5 1738.5V1755L179 1743V1726.5L156.5 1738.5ZM219.5 1738.5L189 1755V1733L219.5 1716V1738.5ZM219.5 1738.5V1755L242 1743V1726.5L219.5 1738.5ZM282.5 1738.5L252 1755V1733L282.5 1716V1738.5ZM282.5 1738.5V1755L305 1743V1726.5L282.5 1738.5ZM30.5 1787.5L0 1804V1782L30.5 1765V1787.5ZM30.5 1787.5V1804L53 1792V1775.5L30.5 1787.5ZM93.5 1787.5L63 1804V1782L93.5 1765V1787.5ZM93.5 1787.5V1804L116 1792V1775.5L93.5 1787.5ZM156.5 1787.5L126 1804V1782L156.5 1765V1787.5ZM156.5 1787.5V1804L179 1792V1775.5L156.5 1787.5ZM219.5 1787.5L189 1804V1782L219.5 1765V1787.5ZM219.5 1787.5V1804L242 1792V1775.5L219.5 1787.5ZM282.5 1787.5L252 1804V1782L282.5 1765V1787.5ZM282.5 1787.5V1804L305 1792V1775.5L282.5 1787.5ZM30.5 1836.5L0 1853V1831L30.5 1814V1836.5ZM30.5 1836.5V1853L53 1841V1824.5L30.5 1836.5ZM93.5 1836.5L63 1853V1831L93.5 1814V1836.5ZM93.5 1836.5V1853L116 1841V1824.5L93.5 1836.5ZM156.5 1836.5L126 1853V1831L156.5 1814V1836.5ZM156.5 1836.5V1853L179 1841V1824.5L156.5 1836.5ZM219.5 1836.5L189 1853V1831L219.5 1814V1836.5ZM219.5 1836.5V1853L242 1841V1824.5L219.5 1836.5ZM282.5 1836.5L252 1853V1831L282.5 1814V1836.5ZM282.5 1836.5V1853L305 1841V1824.5L282.5 1836.5ZM30.5 1885.5L0 1902V1880L30.5 1863V1885.5ZM30.5 1885.5V1902L53 1890V1873.5L30.5 1885.5ZM93.5 1885.5L63 1902V1880L93.5 1863V1885.5ZM93.5 1885.5V1902L116 1890V1873.5L93.5 1885.5ZM156.5 1885.5L126 1902V1880L156.5 1863V1885.5ZM156.5 1885.5V1902L179 1890V1873.5L156.5 1885.5ZM219.5 1885.5L189 1902V1880L219.5 1863V1885.5ZM219.5 1885.5V1902L242 1890V1873.5L219.5 1885.5ZM282.5 1885.5L252 1902V1880L282.5 1863V1885.5ZM282.5 1885.5V1902L305 1890V1873.5L282.5 1885.5ZM30.5 1934.5L0 1951V1929L30.5 1912V1934.5ZM30.5 1934.5V1951L53 1939V1922.5L30.5 1934.5ZM93.5 1934.5L63 1951V1929L93.5 1912V1934.5ZM93.5 1934.5V1951L116 1939V1922.5L93.5 1934.5ZM156.5 1934.5L126 1951V1929L156.5 1912V1934.5ZM156.5 1934.5V1951L179 1939V1922.5L156.5 1934.5ZM219.5 1934.5L189 1951V1929L219.5 1912V1934.5ZM219.5 1934.5V1951L242 1939V1922.5L219.5 1934.5ZM282.5 1934.5L252 1951V1929L282.5 1912V1934.5ZM282.5 1934.5V1951L305 1939V1922.5L282.5 1934.5Z" stroke="#E1E1E1"/>
<path d="M30.5 1983.5L0 2000V1978L30.5 1961V1983.5ZM30.5 1983.5V2000L53 1988V1971.5L30.5 1983.5ZM93.5 1983.5L63 2000V1978L93.5 1961V1983.5ZM93.5 1983.5V2000L116 1988V1971.5L93.5 1983.5ZM156.5 1983.5L126 2000V1978L156.5 1961V1983.5ZM156.5 1983.5V2000L179 1988V1971.5L156.5 1983.5ZM219.5 1983.5L189 2000V1978L219.5 1961V1983.5ZM219.5 1983.5V2000L242 1988V1971.5L219.5 1983.5ZM282.5 1983.5L252 2000V1978L282.5 1961V1983.5ZM282.5 1983.5V2000L305 1988V1971.5L282.5 1983.5ZM30.5 2032.5L0 2049V2027L30.5 2010V2032.5ZM30.5 2032.5V2049L53 2037V2020.5L30.5 2032.5ZM93.5 2032.5L63 2049V2027L93.5 2010V2032.5ZM93.5 2032.5V2049L116 2037V2020.5L93.5 2032.5ZM156.5 2032.5L126 2049V2027L156.5 2010V2032.5ZM156.5 2032.5V2049L179 2037V2020.5L156.5 2032.5ZM219.5 2032.5L189 2049V2027L219.5 2010V2032.5ZM219.5 2032.5V2049L242 2037V2020.5L219.5 2032.5ZM282.5 2032.5L252 2049V2027L282.5 2010V2032.5ZM282.5 2032.5V2049L305 2037V2020.5L282.5 2032.5ZM30.5 2081.5L0 2098V2076L30.5 2059V2081.5ZM30.5 2081.5V2098L53 2086V2069.5L30.5 2081.5ZM93.5 2081.5L63 2098V2076L93.5 2059V2081.5ZM93.5 2081.5V2098L116 2086V2069.5L93.5 2081.5ZM156.5 2081.5L126 2098V2076L156.5 2059V2081.5ZM156.5 2081.5V2098L179 2086V2069.5L156.5 2081.5ZM219.5 2081.5L189 2098V2076L219.5 2059V2081.5ZM219.5 2081.5V2098L242 2086V2069.5L219.5 2081.5ZM282.5 2081.5L252 2098V2076L282.5 2059V2081.5ZM282.5 2081.5V2098L305 2086V2069.5L282.5 2081.5ZM30.5 2130.5L0 2147V2125L30.5 2108V2130.5ZM30.5 2130.5V2147L53 2135V2118.5L30.5 2130.5ZM93.5 2130.5L63 2147V2125L93.5 2108V2130.5ZM93.5 2130.5V2147L116 2135V2118.5L93.5 2130.5ZM156.5 2130.5L126 2147V2125L156.5 2108V2130.5ZM156.5 2130.5V2147L179 2135V2118.5L156.5 2130.5ZM219.5 2130.5L189 2147V2125L219.5 2108V2130.5ZM219.5 2130.5V2147L242 2135V2118.5L219.5 2130.5ZM282.5 2130.5L252 2147V2125L282.5 2108V2130.5ZM282.5 2130.5V2147L305 2135V2118.5L282.5 2130.5ZM30.5 2179.5L0 2196V2174L30.5 2157V2179.5ZM30.5 2179.5V2196L53 2184V2167.5L30.5 2179.5ZM93.5 2179.5L63 2196V2174L93.5 2157V2179.5ZM93.5 2179.5V2196L116 2184V2167.5L93.5 2179.5ZM156.5 2179.5L126 2196V2174L156.5 2157V2179.5ZM156.5 2179.5V2196L179 2184V2167.5L156.5 2179.5ZM219.5 2179.5L189 2196V2174L219.5 2157V2179.5ZM219.5 2179.5V2196L242 2184V2167.5L219.5 2179.5ZM282.5 2179.5L252 2196V2174L282.5 2157V2179.5ZM282.5 2179.5V2196L305 2184V2167.5L282.5 2179.5ZM30.5 2228.5L0 2245V2223L30.5 2206V2228.5ZM30.5 2228.5V2245L53 2233V2216.5L30.5 2228.5ZM93.5 2228.5L63 2245V2223L93.5 2206V2228.5ZM93.5 2228.5V2245L116 2233V2216.5L93.5 2228.5ZM156.5 2228.5L126 2245V2223L156.5 2206V2228.5ZM156.5 2228.5V2245L179 2233V2216.5L156.5 2228.5ZM219.5 2228.5L189 2245V2223L219.5 2206V2228.5ZM219.5 2228.5V2245L242 2233V2216.5L219.5 2228.5ZM282.5 2228.5L252 2245V2223L282.5 2206V2228.5ZM282.5 2228.5V2245L305 2233V2216.5L282.5 2228.5ZM30.5 2277.5L0 2294V2272L30.5 2255V2277.5ZM30.5 2277.5V2294L53 2282V2265.5L30.5 2277.5ZM93.5 2277.5L63 2294V2272L93.5 2255V2277.5ZM93.5 2277.5V2294L116 2282V2265.5L93.5 2277.5ZM156.5 2277.5L126 2294V2272L156.5 2255V2277.5ZM156.5 2277.5V2294L179 2282V2265.5L156.5 2277.5ZM219.5 2277.5L189 2294V2272L219.5 2255V2277.5ZM219.5 2277.5V2294L242 2282V2265.5L219.5 2277.5ZM282.5 2277.5L252 2294V2272L282.5 2255V2277.5ZM282.5 2277.5V2294L305 2282V2265.5L282.5 2277.5ZM30.5 2326.5L0 2343V2321L30.5 2304V2326.5ZM30.5 2326.5V2343L53 2331V2314.5L30.5 2326.5ZM93.5 2326.5L63 2343V2321L93.5 2304V2326.5ZM93.5 2326.5V2343L116 2331V2314.5L93.5 2326.5ZM156.5 2326.5L126 2343V2321L156.5 2304V2326.5ZM156.5 2326.5V2343L179 2331V2314.5L156.5 2326.5ZM219.5 2326.5L189 2343V2321L219.5 2304V2326.5ZM219.5 2326.5V2343L242 2331V2314.5L219.5 2326.5ZM282.5 2326.5L252 2343V2321L282.5 2304V2326.5ZM282.5 2326.5V2343L305 2331V2314.5L282.5 2326.5ZM30.5 2375.5L0 2392V2370L30.5 2353V2375.5ZM30.5 2375.5V2392L53 2380V2363.5L30.5 2375.5ZM93.5 2375.5L63 2392V2370L93.5 2353V2375.5ZM93.5 2375.5V2392L116 2380V2363.5L93.5 2375.5ZM156.5 2375.5L126 2392V2370L156.5 2353V2375.5ZM156.5 2375.5V2392L179 2380V2363.5L156.5 2375.5ZM219.5 2375.5L189 2392V2370L219.5 2353V2375.5ZM219.5 2375.5V2392L242 2380V2363.5L219.5 2375.5ZM282.5 2375.5L252 2392V2370L282.5 2353V2375.5ZM282.5 2375.5V2392L305 2380V2363.5L282.5 2375.5ZM30.5 2424.5L0 2441V2419L30.5 2402V2424.5ZM30.5 2424.5V2441L53 2429V2412.5L30.5 2424.5ZM93.5 2424.5L63 2441V2419L93.5 2402V2424.5ZM93.5 2424.5V2441L116 2429V2412.5L93.5 2424.5ZM156.5 2424.5L126 2441V2419L156.5 2402V2424.5ZM156.5 2424.5V2441L179 2429V2412.5L156.5 2424.5ZM219.5 2424.5L189 2441V2419L219.5 2402V2424.5ZM219.5 2424.5V2441L242 2429V2412.5L219.5 2424.5ZM282.5 2424.5L252 2441V2419L282.5 2402V2424.5ZM282.5 2424.5V2441L305 2429V2412.5L282.5 2424.5Z" stroke="#E1E1E1"/>
<path d="M30.5 2473.5L0 2490V2468L30.5 2451V2473.5ZM30.5 2473.5V2490L53 2478V2461.5L30.5 2473.5ZM93.5 2473.5L63 2490V2468L93.5 2451V2473.5ZM93.5 2473.5V2490L116 2478V2461.5L93.5 2473.5ZM156.5 2473.5L126 2490V2468L156.5 2451V2473.5ZM156.5 2473.5V2490L179 2478V2461.5L156.5 2473.5ZM219.5 2473.5L189 2490V2468L219.5 2451V2473.5ZM219.5 2473.5V2490L242 2478V2461.5L219.5 2473.5ZM282.5 2473.5L252 2490V2468L282.5 2451V2473.5ZM282.5 2473.5V2490L305 2478V2461.5L282.5 2473.5ZM30.5 2522.5L0 2539V2517L30.5 2500V2522.5ZM30.5 2522.5V2539L53 2527V2510.5L30.5 2522.5ZM93.5 2522.5L63 2539V2517L93.5 2500V2522.5ZM93.5 2522.5V2539L116 2527V2510.5L93.5 2522.5ZM156.5 2522.5L126 2539V2517L156.5 2500V2522.5ZM156.5 2522.5V2539L179 2527V2510.5L156.5 2522.5ZM219.5 2522.5L189 2539V2517L219.5 2500V2522.5ZM219.5 2522.5V2539L242 2527V2510.5L219.5 2522.5ZM282.5 2522.5L252 2539V2517L282.5 2500V2522.5ZM282.5 2522.5V2539L305 2527V2510.5L282.5 2522.5ZM30.5 2571.5L0 2588V2566L30.5 2549V2571.5ZM30.5 2571.5V2588L53 2576V2559.5L30.5 2571.5ZM93.5 2571.5L63 2588V2566L93.5 2549V2571.5ZM93.5 2571.5V2588L116 2576V2559.5L93.5 2571.5ZM156.5 2571.5L126 2588V2566L156.5 2549V2571.5ZM156.5 2571.5V2588L179 2576V2559.5L156.5 2571.5ZM219.5 2571.5L189 2588V2566L219.5 2549V2571.5ZM219.5 2571.5V2588L242 2576V2559.5L219.5 2571.5ZM282.5 2571.5L252 2588V2566L282.5 2549V2571.5ZM282.5 2571.5V2588L305 2576V2559.5L282.5 2571.5ZM30.5 2620.5L0 2637V2615L30.5 2598V2620.5ZM30.5 2620.5V2637L53 2625V2608.5L30.5 2620.5ZM93.5 2620.5L63 2637V2615L93.5 2598V2620.5ZM93.5 2620.5V2637L116 2625V2608.5L93.5 2620.5ZM156.5 2620.5L126 2637V2615L156.5 2598V2620.5ZM156.5 2620.5V2637L179 2625V2608.5L156.5 2620.5ZM219.5 2620.5L189 2637V2615L219.5 2598V2620.5ZM219.5 2620.5V2637L242 2625V2608.5L219.5 2620.5ZM282.5 2620.5L252 2637V2615L282.5 2598V2620.5ZM282.5 2620.5V2637L305 2625V2608.5L282.5 2620.5ZM30.5 2669.5L0 2686V2664L30.5 2647V2669.5ZM30.5 2669.5V2686L53 2674V2657.5L30.5 2669.5ZM93.5 2669.5L63 2686V2664L93.5 2647V2669.5ZM93.5 2669.5V2686L116 2674V2657.5L93.5 2669.5ZM156.5 2669.5L126 2686V2664L156.5 2647V2669.5ZM156.5 2669.5V2686L179 2674V2657.5L156.5 2669.5ZM219.5 2669.5L189 2686V2664L219.5 2647V2669.5ZM219.5 2669.5V2686L242 2674V2657.5L219.5 2669.5ZM282.5 2669.5L252 2686V2664L282.5 2647V2669.5ZM282.5 2669.5V2686L305 2674V2657.5L282.5 2669.5ZM30.5 2718.5L0 2735V2713L30.5 2696V2718.5ZM30.5 2718.5V2735L53 2723V2706.5L30.5 2718.5ZM93.5 2718.5L63 2735V2713L93.5 2696V2718.5ZM93.5 2718.5V2735L116 2723V2706.5L93.5 2718.5ZM156.5 2718.5L126 2735V2713L156.5 2696V2718.5ZM156.5 2718.5V2735L179 2723V2706.5L156.5 2718.5ZM219.5 2718.5L189 2735V2713L219.5 2696V2718.5ZM219.5 2718.5V2735L242 2723V2706.5L219.5 2718.5ZM282.5 2718.5L252 2735V2713L282.5 2696V2718.5ZM282.5 2718.5V2735L305 2723V2706.5L282.5 2718.5ZM30.5 2767.5L0 2784V2762L30.5 2745V2767.5ZM30.5 2767.5V2784L53 2772V2755.5L30.5 2767.5ZM93.5 2767.5L63 2784V2762L93.5 2745V2767.5ZM93.5 2767.5V2784L116 2772V2755.5L93.5 2767.5ZM156.5 2767.5L126 2784V2762L156.5 2745V2767.5ZM156.5 2767.5V2784L179 2772V2755.5L156.5 2767.5ZM219.5 2767.5L189 2784V2762L219.5 2745V2767.5ZM219.5 2767.5V2784L242 2772V2755.5L219.5 2767.5ZM282.5 2767.5L252 2784V2762L282.5 2745V2767.5ZM282.5 2767.5V2784L305 2772V2755.5L282.5 2767.5ZM30.5 2816.5L0 2833V2811L30.5 2794V2816.5ZM30.5 2816.5V2833L53 2821V2804.5L30.5 2816.5ZM93.5 2816.5L63 2833V2811L93.5 2794V2816.5ZM93.5 2816.5V2833L116 2821V2804.5L93.5 2816.5ZM156.5 2816.5L126 2833V2811L156.5 2794V2816.5ZM156.5 2816.5V2833L179 2821V2804.5L156.5 2816.5ZM219.5 2816.5L189 2833V2811L219.5 2794V2816.5ZM219.5 2816.5V2833L242 2821V2804.5L219.5 2816.5ZM282.5 2816.5L252 2833V2811L282.5 2794V2816.5ZM282.5 2816.5V2833L305 2821V2804.5L282.5 2816.5ZM30.5 2865.5L0 2882V2860L30.5 2843V2865.5ZM30.5 2865.5V2882L53 2870V2853.5L30.5 2865.5ZM93.5 2865.5L63 2882V2860L93.5 2843V2865.5ZM93.5 2865.5V2882L116 2870V2853.5L93.5 2865.5ZM156.5 2865.5L126 2882V2860L156.5 2843V2865.5ZM156.5 2865.5V2882L179 2870V2853.5L156.5 2865.5ZM219.5 2865.5L189 2882V2860L219.5 2843V2865.5ZM219.5 2865.5V2882L242 2870V2853.5L219.5 2865.5ZM282.5 2865.5L252 2882V2860L282.5 2843V2865.5ZM282.5 2865.5V2882L305 2870V2853.5L282.5 2865.5ZM30.5 2914.5L0 2931V2909L30.5 2892V2914.5ZM30.5 2914.5V2931L53 2919V2902.5L30.5 2914.5ZM93.5 2914.5L63 2931V2909L93.5 2892V2914.5ZM93.5 2914.5V2931L116 2919V2902.5L93.5 2914.5ZM156.5 2914.5L126 2931V2909L156.5 2892V2914.5ZM156.5 2914.5V2931L179 2919V2902.5L156.5 2914.5ZM219.5 2914.5L189 2931V2909L219.5 2892V2914.5ZM219.5 2914.5V2931L242 2919V2902.5L219.5 2914.5ZM282.5 2914.5L252 2931V2909L282.5 2892V2914.5ZM282.5 2914.5V2931L305 2919V2902.5L282.5 2914.5Z" stroke="#E1E1E1"/>
</svg>
