<svg width="168" height="39" viewBox="0 0 168 39" fill="none" xmlns="http://www.w3.org/2000/svg">
<path d="M0 39V17L30.5 0V22.5L53 10.5V27L30.5 39V22.5L0 39Z" fill="white"/>
<path d="M30.5 39V22.5L53 10.5V27L30.5 39Z" fill="white"/>
<path d="M72.9668 15.2305C72.9668 16.0827 72.752 16.8919 72.3223 17.6582C71.8926 18.4173 71.223 19.0332 70.3135 19.5059C69.4111 19.9785 68.2438 20.2148 66.8115 20.2148C66.0954 20.2148 65.4652 20.1826 64.9209 20.1182C64.3838 20.0537 63.8825 19.9499 63.417 19.8066C62.9515 19.6562 62.4681 19.4629 61.9668 19.2266V15.4453C62.819 15.875 63.6784 16.2044 64.5449 16.4336C65.4115 16.6556 66.1956 16.7666 66.8975 16.7666C67.32 16.7666 67.6637 16.7165 67.9287 16.6162C68.2008 16.516 68.4014 16.3799 68.5303 16.208C68.6592 16.029 68.7236 15.8249 68.7236 15.5957C68.7236 15.3236 68.627 15.0944 68.4336 14.9082C68.2474 14.7148 67.9466 14.5143 67.5312 14.3066C67.1159 14.099 66.568 13.8411 65.8877 13.5332C65.3076 13.2611 64.7812 12.9818 64.3086 12.6953C63.8431 12.4089 63.4421 12.083 63.1055 11.7178C62.776 11.3454 62.5218 10.9121 62.3428 10.418C62.1637 9.92383 62.0742 9.34017 62.0742 8.66699C62.0742 7.65723 62.3213 6.81217 62.8154 6.13184C63.3167 5.44434 64.0114 4.92871 64.8994 4.58496C65.7946 4.24121 66.8258 4.06934 67.9932 4.06934C69.0173 4.06934 69.9375 4.18392 70.7539 4.41309C71.5775 4.64225 72.3151 4.90365 72.9668 5.19727L71.667 8.47363C70.9938 8.16569 70.3314 7.9222 69.6797 7.74316C69.028 7.55697 68.4229 7.46387 67.8643 7.46387C67.499 7.46387 67.1982 7.51042 66.9619 7.60352C66.7327 7.68945 66.5609 7.80762 66.4463 7.95801C66.3389 8.1084 66.2852 8.28027 66.2852 8.47363C66.2852 8.71712 66.3783 8.93555 66.5645 9.12891C66.7578 9.32227 67.0765 9.53353 67.5205 9.7627C67.9717 9.9847 68.584 10.2747 69.3574 10.6328C70.1237 10.9766 70.7754 11.349 71.3125 11.75C71.8496 12.1439 72.2578 12.6201 72.5371 13.1787C72.8236 13.7301 72.9668 14.4141 72.9668 15.2305ZM88.8115 20H84.0205L80.916 13.9951L79.6592 14.7471V20H75.3945V4.29492H79.6592V11.1162C79.8382 10.7725 80.0423 10.4287 80.2715 10.085C80.5078 9.74121 80.737 9.41536 80.959 9.10742L84.2568 4.29492H88.8975L83.9453 11.3311L88.8115 20ZM101.67 4.29492C103.661 4.29492 105.15 4.72819 106.139 5.59473C107.134 6.46126 107.632 7.69303 107.632 9.29004C107.632 10.0062 107.528 10.6937 107.32 11.3525C107.12 12.0114 106.787 12.5986 106.321 13.1143C105.863 13.6299 105.251 14.0381 104.484 14.3389C103.725 14.6396 102.787 14.79 101.67 14.79H100.478V20H96.2344V4.29492H101.67ZM101.573 7.72168H100.478V11.3311H101.315C101.681 11.3311 102.021 11.2702 102.336 11.1484C102.651 11.0195 102.902 10.8154 103.088 10.5361C103.281 10.2497 103.378 9.87012 103.378 9.39746C103.378 8.90332 103.231 8.50228 102.938 8.19434C102.644 7.87923 102.189 7.72168 101.573 7.72168ZM110.135 20V4.29492H114.378V16.5732H120.426V20H110.135ZM132.575 20L131.802 17.0566H126.699L125.904 20H121.242L126.366 4.23047H132.027L137.216 20H132.575ZM130.921 13.5762L130.244 10.998C130.173 10.7188 130.069 10.3213 129.933 9.80566C129.797 9.28288 129.66 8.74577 129.524 8.19434C129.396 7.63574 129.295 7.17741 129.224 6.81934C129.159 7.17741 129.066 7.62142 128.944 8.15137C128.83 8.67415 128.708 9.19336 128.579 9.70898C128.457 10.2246 128.35 10.6543 128.257 10.998L127.58 13.5762H130.921ZM150.117 20H137.882V17.3789L144.682 7.72168H138.043V4.29492H149.945V6.90527L143.146 16.5732H150.117V20ZM162.009 20L161.235 17.0566H156.133L155.338 20H150.676L155.8 4.23047H161.461L166.649 20H162.009ZM160.354 13.5762L159.678 10.998C159.606 10.7188 159.502 10.3213 159.366 9.80566C159.23 9.28288 159.094 8.74577 158.958 8.19434C158.829 7.63574 158.729 7.17741 158.657 6.81934C158.593 7.17741 158.5 7.62142 158.378 8.15137C158.263 8.67415 158.142 9.19336 158.013 9.70898C157.891 10.2246 157.784 10.6543 157.69 10.998L157.014 13.5762H160.354Z" fill="white"/>
<path d="M67.1182 35H66.1123L62.8115 31.3818V35H61.9814V27.8613H62.8115V31.3184L66.0293 27.8613H66.9814L63.8223 31.3281L67.1182 35ZM74.3008 31.4209C74.3008 32.5635 74.0111 33.4619 73.4316 34.1162C72.8555 34.7705 72.0531 35.0977 71.0244 35.0977C69.973 35.0977 69.1608 34.777 68.5879 34.1357C68.0182 33.4912 67.7334 32.583 67.7334 31.4111C67.7334 30.249 68.0199 29.349 68.5928 28.7109C69.1657 28.0697 69.9795 27.749 71.0342 27.749C72.0596 27.749 72.8604 28.0745 73.4365 28.7256C74.0127 29.3766 74.3008 30.2751 74.3008 31.4209ZM68.6123 31.4209C68.6123 32.3877 68.8174 33.1217 69.2275 33.623C69.641 34.1211 70.2399 34.3701 71.0244 34.3701C71.8154 34.3701 72.4128 34.1211 72.8164 33.623C73.2201 33.125 73.4219 32.391 73.4219 31.4209C73.4219 30.4606 73.2201 29.7331 72.8164 29.2383C72.416 28.7402 71.8219 28.4912 71.0342 28.4912C70.2432 28.4912 69.641 28.7419 69.2275 29.2432C68.8174 29.7412 68.6123 30.4671 68.6123 31.4209ZM75.8975 27.8613H77.9141C78.8613 27.8613 79.5465 28.0029 79.9697 28.2861C80.3929 28.5693 80.6045 29.0169 80.6045 29.6289C80.6045 30.0521 80.4857 30.402 80.248 30.6787C80.0137 30.9521 79.6702 31.1296 79.2178 31.2109V31.2598C80.3018 31.4453 80.8438 32.015 80.8438 32.9688C80.8438 33.6068 80.6273 34.1048 80.1943 34.4629C79.7646 34.821 79.1624 35 78.3877 35H75.8975V27.8613ZM76.7275 30.918H78.0947C78.6807 30.918 79.1022 30.8268 79.3594 30.6445C79.6165 30.459 79.7451 30.1481 79.7451 29.7119C79.7451 29.3115 79.6019 29.0234 79.3154 28.8477C79.029 28.6686 78.5732 28.5791 77.9482 28.5791H76.7275V30.918ZM76.7275 31.6211V34.292H78.2168C78.793 34.292 79.2259 34.1813 79.5156 33.96C79.8086 33.7354 79.9551 33.3854 79.9551 32.9102C79.9551 32.4674 79.8053 32.1419 79.5059 31.9336C79.2096 31.7253 78.7572 31.6211 78.1484 31.6211H76.7275ZM88.5781 31.4209C88.5781 32.5635 88.2884 33.4619 87.709 34.1162C87.1328 34.7705 86.3304 35.0977 85.3018 35.0977C84.2503 35.0977 83.4382 34.777 82.8652 34.1357C82.2956 33.4912 82.0107 32.583 82.0107 31.4111C82.0107 30.249 82.2972 29.349 82.8701 28.7109C83.443 28.0697 84.2568 27.749 85.3115 27.749C86.3369 27.749 87.1377 28.0745 87.7139 28.7256C88.29 29.3766 88.5781 30.2751 88.5781 31.4209ZM82.8896 31.4209C82.8896 32.3877 83.0947 33.1217 83.5049 33.623C83.9183 34.1211 84.5173 34.3701 85.3018 34.3701C86.0928 34.3701 86.6901 34.1211 87.0938 33.623C87.4974 33.125 87.6992 32.391 87.6992 31.4209C87.6992 30.4606 87.4974 29.7331 87.0938 29.2383C86.6934 28.7402 86.0993 28.4912 85.3115 28.4912C84.5205 28.4912 83.9183 28.7419 83.5049 29.2432C83.0947 29.7412 82.8896 30.4671 82.8896 31.4209ZM94.7012 29.9414C94.7012 30.6641 94.4538 31.2207 93.959 31.6113C93.4674 31.9987 92.7627 32.1924 91.8447 32.1924H91.0049V35H90.1748V27.8613H92.0254C93.8092 27.8613 94.7012 28.5547 94.7012 29.9414ZM91.0049 31.4795H91.752C92.4876 31.4795 93.0199 31.3607 93.3486 31.123C93.6774 30.8854 93.8418 30.5046 93.8418 29.9805C93.8418 29.5085 93.6872 29.1569 93.3779 28.9258C93.0687 28.6947 92.5869 28.5791 91.9326 28.5791H91.0049V31.4795ZM101.337 35H100.331L97.0303 31.3818V35H96.2002V27.8613H97.0303V31.3184L100.248 27.8613H101.2L98.041 31.3281L101.337 35ZM102.333 27.8613H103.109V31.8311C103.109 32.5635 103.087 33.2259 103.041 33.8184H103.08L107.084 27.8613H107.992V35H107.211V31.0693C107.211 30.415 107.239 29.7282 107.294 29.0088H107.25L103.241 35H102.333V27.8613ZM115.37 35H114.54V31.6406H110.78V35H109.95V27.8613H110.78V30.8984H114.54V27.8613H115.37V35ZM121.312 27.8613V28.6084H118.163V35H117.333V27.8613H121.312Z" fill="white"/>
</svg>
