<svg width="307" height="972" viewBox="0 0 307 972" fill="none" xmlns="http://www.w3.org/2000/svg">
<path d="M31.5 23.5L1 40V18L31.5 1V23.5ZM31.5 23.5V40L54 28V11.5L31.5 23.5ZM94.5 23.5L64 40V18L94.5 1V23.5ZM94.5 23.5V40L117 28V11.5L94.5 23.5ZM157.5 23.5L127 40V18L157.5 1V23.5ZM157.5 23.5V40L180 28V11.5L157.5 23.5ZM220.5 23.5L190 40V18L220.5 1V23.5ZM220.5 23.5V40L243 28V11.5L220.5 23.5ZM283.5 23.5L253 40V18L283.5 1V23.5ZM283.5 23.5V40L306 28V11.5L283.5 23.5ZM31.5 72.5L1 89V67L31.5 50V72.5ZM31.5 72.5V89L54 77V60.5L31.5 72.5ZM94.5 72.5L64 89V67L94.5 50V72.5ZM94.5 72.5V89L117 77V60.5L94.5 72.5ZM157.5 72.5L127 89V67L157.5 50V72.5ZM157.5 72.5V89L180 77V60.5L157.5 72.5ZM220.5 72.5L190 89V67L220.5 50V72.5ZM220.5 72.5V89L243 77V60.5L220.5 72.5ZM283.5 72.5L253 89V67L283.5 50V72.5ZM283.5 72.5V89L306 77V60.5L283.5 72.5ZM31.5 121.5L1 138V116L31.5 99V121.5ZM31.5 121.5V138L54 126V109.5L31.5 121.5ZM94.5 121.5L64 138V116L94.5 99V121.5ZM94.5 121.5V138L117 126V109.5L94.5 121.5ZM157.5 121.5L127 138V116L157.5 99V121.5ZM157.5 121.5V138L180 126V109.5L157.5 121.5ZM220.5 121.5L190 138V116L220.5 99V121.5ZM220.5 121.5V138L243 126V109.5L220.5 121.5ZM283.5 121.5L253 138V116L283.5 99V121.5ZM283.5 121.5V138L306 126V109.5L283.5 121.5ZM31.5 170.5L1 187V165L31.5 148V170.5ZM31.5 170.5V187L54 175V158.5L31.5 170.5ZM94.5 170.5L64 187V165L94.5 148V170.5ZM94.5 170.5V187L117 175V158.5L94.5 170.5ZM157.5 170.5L127 187V165L157.5 148V170.5ZM157.5 170.5V187L180 175V158.5L157.5 170.5ZM220.5 170.5L190 187V165L220.5 148V170.5ZM220.5 170.5V187L243 175V158.5L220.5 170.5ZM283.5 170.5L253 187V165L283.5 148V170.5ZM283.5 170.5V187L306 175V158.5L283.5 170.5ZM31.5 219.5L1 236V214L31.5 197V219.5ZM31.5 219.5V236L54 224V207.5L31.5 219.5ZM94.5 219.5L64 236V214L94.5 197V219.5ZM94.5 219.5V236L117 224V207.5L94.5 219.5ZM157.5 219.5L127 236V214L157.5 197V219.5ZM157.5 219.5V236L180 224V207.5L157.5 219.5ZM220.5 219.5L190 236V214L220.5 197V219.5ZM220.5 219.5V236L243 224V207.5L220.5 219.5ZM283.5 219.5L253 236V214L283.5 197V219.5ZM283.5 219.5V236L306 224V207.5L283.5 219.5ZM31.5 268.5L1 285V263L31.5 246V268.5ZM31.5 268.5V285L54 273V256.5L31.5 268.5ZM94.5 268.5L64 285V263L94.5 246V268.5ZM94.5 268.5V285L117 273V256.5L94.5 268.5ZM157.5 268.5L127 285V263L157.5 246V268.5ZM157.5 268.5V285L180 273V256.5L157.5 268.5ZM220.5 268.5L190 285V263L220.5 246V268.5ZM220.5 268.5V285L243 273V256.5L220.5 268.5ZM283.5 268.5L253 285V263L283.5 246V268.5ZM283.5 268.5V285L306 273V256.5L283.5 268.5ZM31.5 317.5L1 334V312L31.5 295V317.5ZM31.5 317.5V334L54 322V305.5L31.5 317.5ZM94.5 317.5L64 334V312L94.5 295V317.5ZM94.5 317.5V334L117 322V305.5L94.5 317.5ZM157.5 317.5L127 334V312L157.5 295V317.5ZM157.5 317.5V334L180 322V305.5L157.5 317.5ZM220.5 317.5L190 334V312L220.5 295V317.5ZM220.5 317.5V334L243 322V305.5L220.5 317.5ZM283.5 317.5L253 334V312L283.5 295V317.5ZM283.5 317.5V334L306 322V305.5L283.5 317.5ZM31.5 366.5L1 383V361L31.5 344V366.5ZM31.5 366.5V383L54 371V354.5L31.5 366.5ZM94.5 366.5L64 383V361L94.5 344V366.5ZM94.5 366.5V383L117 371V354.5L94.5 366.5ZM157.5 366.5L127 383V361L157.5 344V366.5ZM157.5 366.5V383L180 371V354.5L157.5 366.5ZM220.5 366.5L190 383V361L220.5 344V366.5ZM220.5 366.5V383L243 371V354.5L220.5 366.5ZM283.5 366.5L253 383V361L283.5 344V366.5ZM283.5 366.5V383L306 371V354.5L283.5 366.5ZM31.5 415.5L1 432V410L31.5 393V415.5ZM31.5 415.5V432L54 420V403.5L31.5 415.5ZM94.5 415.5L64 432V410L94.5 393V415.5ZM94.5 415.5V432L117 420V403.5L94.5 415.5ZM157.5 415.5L127 432V410L157.5 393V415.5ZM157.5 415.5V432L180 420V403.5L157.5 415.5ZM220.5 415.5L190 432V410L220.5 393V415.5ZM220.5 415.5V432L243 420V403.5L220.5 415.5ZM283.5 415.5L253 432V410L283.5 393V415.5ZM283.5 415.5V432L306 420V403.5L283.5 415.5ZM31.5 464.5L1 481V459L31.5 442V464.5ZM31.5 464.5V481L54 469V452.5L31.5 464.5ZM94.5 464.5L64 481V459L94.5 442V464.5ZM94.5 464.5V481L117 469V452.5L94.5 464.5ZM157.5 464.5L127 481V459L157.5 442V464.5ZM157.5 464.5V481L180 469V452.5L157.5 464.5ZM220.5 464.5L190 481V459L220.5 442V464.5ZM220.5 464.5V481L243 469V452.5L220.5 464.5ZM283.5 464.5L253 481V459L283.5 442V464.5ZM283.5 464.5V481L306 469V452.5L283.5 464.5Z" stroke="#E1E1E1"/>
<path d="M31.5 513.5L1 530V508L31.5 491V513.5ZM31.5 513.5V530L54 518V501.5L31.5 513.5ZM94.5 513.5L64 530V508L94.5 491V513.5ZM94.5 513.5V530L117 518V501.5L94.5 513.5ZM157.5 513.5L127 530V508L157.5 491V513.5ZM157.5 513.5V530L180 518V501.5L157.5 513.5ZM220.5 513.5L190 530V508L220.5 491V513.5ZM220.5 513.5V530L243 518V501.5L220.5 513.5ZM283.5 513.5L253 530V508L283.5 491V513.5ZM283.5 513.5V530L306 518V501.5L283.5 513.5ZM31.5 562.5L1 579V557L31.5 540V562.5ZM31.5 562.5V579L54 567V550.5L31.5 562.5ZM94.5 562.5L64 579V557L94.5 540V562.5ZM94.5 562.5V579L117 567V550.5L94.5 562.5ZM157.5 562.5L127 579V557L157.5 540V562.5ZM157.5 562.5V579L180 567V550.5L157.5 562.5ZM220.5 562.5L190 579V557L220.5 540V562.5ZM220.5 562.5V579L243 567V550.5L220.5 562.5ZM283.5 562.5L253 579V557L283.5 540V562.5ZM283.5 562.5V579L306 567V550.5L283.5 562.5ZM31.5 611.5L1 628V606L31.5 589V611.5ZM31.5 611.5V628L54 616V599.5L31.5 611.5ZM94.5 611.5L64 628V606L94.5 589V611.5ZM94.5 611.5V628L117 616V599.5L94.5 611.5ZM157.5 611.5L127 628V606L157.5 589V611.5ZM157.5 611.5V628L180 616V599.5L157.5 611.5ZM220.5 611.5L190 628V606L220.5 589V611.5ZM220.5 611.5V628L243 616V599.5L220.5 611.5ZM283.5 611.5L253 628V606L283.5 589V611.5ZM283.5 611.5V628L306 616V599.5L283.5 611.5ZM31.5 660.5L1 677V655L31.5 638V660.5ZM31.5 660.5V677L54 665V648.5L31.5 660.5ZM94.5 660.5L64 677V655L94.5 638V660.5ZM94.5 660.5V677L117 665V648.5L94.5 660.5ZM157.5 660.5L127 677V655L157.5 638V660.5ZM157.5 660.5V677L180 665V648.5L157.5 660.5ZM220.5 660.5L190 677V655L220.5 638V660.5ZM220.5 660.5V677L243 665V648.5L220.5 660.5ZM283.5 660.5L253 677V655L283.5 638V660.5ZM283.5 660.5V677L306 665V648.5L283.5 660.5ZM31.5 709.5L1 726V704L31.5 687V709.5ZM31.5 709.5V726L54 714V697.5L31.5 709.5ZM94.5 709.5L64 726V704L94.5 687V709.5ZM94.5 709.5V726L117 714V697.5L94.5 709.5ZM157.5 709.5L127 726V704L157.5 687V709.5ZM157.5 709.5V726L180 714V697.5L157.5 709.5ZM220.5 709.5L190 726V704L220.5 687V709.5ZM220.5 709.5V726L243 714V697.5L220.5 709.5ZM283.5 709.5L253 726V704L283.5 687V709.5ZM283.5 709.5V726L306 714V697.5L283.5 709.5ZM31.5 758.5L1 775V753L31.5 736V758.5ZM31.5 758.5V775L54 763V746.5L31.5 758.5ZM94.5 758.5L64 775V753L94.5 736V758.5ZM94.5 758.5V775L117 763V746.5L94.5 758.5ZM157.5 758.5L127 775V753L157.5 736V758.5ZM157.5 758.5V775L180 763V746.5L157.5 758.5ZM220.5 758.5L190 775V753L220.5 736V758.5ZM220.5 758.5V775L243 763V746.5L220.5 758.5ZM283.5 758.5L253 775V753L283.5 736V758.5ZM283.5 758.5V775L306 763V746.5L283.5 758.5ZM31.5 807.5L1 824V802L31.5 785V807.5ZM31.5 807.5V824L54 812V795.5L31.5 807.5ZM94.5 807.5L64 824V802L94.5 785V807.5ZM94.5 807.5V824L117 812V795.5L94.5 807.5ZM157.5 807.5L127 824V802L157.5 785V807.5ZM157.5 807.5V824L180 812V795.5L157.5 807.5ZM220.5 807.5L190 824V802L220.5 785V807.5ZM220.5 807.5V824L243 812V795.5L220.5 807.5ZM283.5 807.5L253 824V802L283.5 785V807.5ZM283.5 807.5V824L306 812V795.5L283.5 807.5ZM31.5 856.5L1 873V851L31.5 834V856.5ZM31.5 856.5V873L54 861V844.5L31.5 856.5ZM94.5 856.5L64 873V851L94.5 834V856.5ZM94.5 856.5V873L117 861V844.5L94.5 856.5ZM157.5 856.5L127 873V851L157.5 834V856.5ZM157.5 856.5V873L180 861V844.5L157.5 856.5ZM220.5 856.5L190 873V851L220.5 834V856.5ZM220.5 856.5V873L243 861V844.5L220.5 856.5ZM283.5 856.5L253 873V851L283.5 834V856.5ZM283.5 856.5V873L306 861V844.5L283.5 856.5ZM31.5 905.5L1 922V900L31.5 883V905.5ZM31.5 905.5V922L54 910V893.5L31.5 905.5ZM94.5 905.5L64 922V900L94.5 883V905.5ZM94.5 905.5V922L117 910V893.5L94.5 905.5ZM157.5 905.5L127 922V900L157.5 883V905.5ZM157.5 905.5V922L180 910V893.5L157.5 905.5ZM220.5 905.5L190 922V900L220.5 883V905.5ZM220.5 905.5V922L243 910V893.5L220.5 905.5ZM283.5 905.5L253 922V900L283.5 883V905.5ZM283.5 905.5V922L306 910V893.5L283.5 905.5ZM31.5 954.5L1 971V949L31.5 932V954.5ZM31.5 954.5V971L54 959V942.5L31.5 954.5ZM94.5 954.5L64 971V949L94.5 932V954.5ZM94.5 954.5V971L117 959V942.5L94.5 954.5ZM157.5 954.5L127 971V949L157.5 932V954.5ZM157.5 954.5V971L180 959V942.5L157.5 954.5ZM220.5 954.5L190 971V949L220.5 932V954.5ZM220.5 954.5V971L243 959V942.5L220.5 954.5ZM283.5 954.5L253 971V949L283.5 932V954.5ZM283.5 954.5V971L306 959V942.5L283.5 954.5Z" stroke="#E1E1E1"/>
</svg>
