<svg width="306" height="482" viewBox="0 0 306 482" fill="none" xmlns="http://www.w3.org/2000/svg">
<path d="M30.5 23.5L0 40V18L30.5 1V23.5ZM30.5 23.5V40L53 28V11.5L30.5 23.5ZM93.5 23.5L63 40V18L93.5 1V23.5ZM93.5 23.5V40L116 28V11.5L93.5 23.5ZM156.5 23.5L126 40V18L156.5 1V23.5ZM156.5 23.5V40L179 28V11.5L156.5 23.5ZM219.5 23.5L189 40V18L219.5 1V23.5ZM219.5 23.5V40L242 28V11.5L219.5 23.5ZM282.5 23.5L252 40V18L282.5 1V23.5ZM282.5 23.5V40L305 28V11.5L282.5 23.5ZM30.5 72.5L0 89V67L30.5 50V72.5ZM30.5 72.5V89L53 77V60.5L30.5 72.5ZM93.5 72.5L63 89V67L93.5 50V72.5ZM93.5 72.5V89L116 77V60.5L93.5 72.5ZM156.5 72.5L126 89V67L156.5 50V72.5ZM156.5 72.5V89L179 77V60.5L156.5 72.5ZM219.5 72.5L189 89V67L219.5 50V72.5ZM219.5 72.5V89L242 77V60.5L219.5 72.5ZM282.5 72.5L252 89V67L282.5 50V72.5ZM282.5 72.5V89L305 77V60.5L282.5 72.5ZM30.5 121.5L0 138V116L30.5 99V121.5ZM30.5 121.5V138L53 126V109.5L30.5 121.5ZM93.5 121.5L63 138V116L93.5 99V121.5ZM93.5 121.5V138L116 126V109.5L93.5 121.5ZM156.5 121.5L126 138V116L156.5 99V121.5ZM156.5 121.5V138L179 126V109.5L156.5 121.5ZM219.5 121.5L189 138V116L219.5 99V121.5ZM219.5 121.5V138L242 126V109.5L219.5 121.5ZM282.5 121.5L252 138V116L282.5 99V121.5ZM282.5 121.5V138L305 126V109.5L282.5 121.5ZM30.5 170.5L0 187V165L30.5 148V170.5ZM30.5 170.5V187L53 175V158.5L30.5 170.5ZM93.5 170.5L63 187V165L93.5 148V170.5ZM93.5 170.5V187L116 175V158.5L93.5 170.5ZM156.5 170.5L126 187V165L156.5 148V170.5ZM156.5 170.5V187L179 175V158.5L156.5 170.5ZM219.5 170.5L189 187V165L219.5 148V170.5ZM219.5 170.5V187L242 175V158.5L219.5 170.5ZM282.5 170.5L252 187V165L282.5 148V170.5ZM282.5 170.5V187L305 175V158.5L282.5 170.5ZM30.5 219.5L0 236V214L30.5 197V219.5ZM30.5 219.5V236L53 224V207.5L30.5 219.5ZM93.5 219.5L63 236V214L93.5 197V219.5ZM93.5 219.5V236L116 224V207.5L93.5 219.5ZM156.5 219.5L126 236V214L156.5 197V219.5ZM156.5 219.5V236L179 224V207.5L156.5 219.5ZM219.5 219.5L189 236V214L219.5 197V219.5ZM219.5 219.5V236L242 224V207.5L219.5 219.5ZM282.5 219.5L252 236V214L282.5 197V219.5ZM282.5 219.5V236L305 224V207.5L282.5 219.5ZM30.5 268.5L0 285V263L30.5 246V268.5ZM30.5 268.5V285L53 273V256.5L30.5 268.5ZM93.5 268.5L63 285V263L93.5 246V268.5ZM93.5 268.5V285L116 273V256.5L93.5 268.5ZM156.5 268.5L126 285V263L156.5 246V268.5ZM156.5 268.5V285L179 273V256.5L156.5 268.5ZM219.5 268.5L189 285V263L219.5 246V268.5ZM219.5 268.5V285L242 273V256.5L219.5 268.5ZM282.5 268.5L252 285V263L282.5 246V268.5ZM282.5 268.5V285L305 273V256.5L282.5 268.5ZM30.5 317.5L0 334V312L30.5 295V317.5ZM30.5 317.5V334L53 322V305.5L30.5 317.5ZM93.5 317.5L63 334V312L93.5 295V317.5ZM93.5 317.5V334L116 322V305.5L93.5 317.5ZM156.5 317.5L126 334V312L156.5 295V317.5ZM156.5 317.5V334L179 322V305.5L156.5 317.5ZM219.5 317.5L189 334V312L219.5 295V317.5ZM219.5 317.5V334L242 322V305.5L219.5 317.5ZM282.5 317.5L252 334V312L282.5 295V317.5ZM282.5 317.5V334L305 322V305.5L282.5 317.5ZM30.5 366.5L0 383V361L30.5 344V366.5ZM30.5 366.5V383L53 371V354.5L30.5 366.5ZM93.5 366.5L63 383V361L93.5 344V366.5ZM93.5 366.5V383L116 371V354.5L93.5 366.5ZM156.5 366.5L126 383V361L156.5 344V366.5ZM156.5 366.5V383L179 371V354.5L156.5 366.5ZM219.5 366.5L189 383V361L219.5 344V366.5ZM219.5 366.5V383L242 371V354.5L219.5 366.5ZM282.5 366.5L252 383V361L282.5 344V366.5ZM282.5 366.5V383L305 371V354.5L282.5 366.5ZM30.5 415.5L0 432V410L30.5 393V415.5ZM30.5 415.5V432L53 420V403.5L30.5 415.5ZM93.5 415.5L63 432V410L93.5 393V415.5ZM93.5 415.5V432L116 420V403.5L93.5 415.5ZM156.5 415.5L126 432V410L156.5 393V415.5ZM156.5 415.5V432L179 420V403.5L156.5 415.5ZM219.5 415.5L189 432V410L219.5 393V415.5ZM219.5 415.5V432L242 420V403.5L219.5 415.5ZM282.5 415.5L252 432V410L282.5 393V415.5ZM282.5 415.5V432L305 420V403.5L282.5 415.5ZM30.5 464.5L0 481V459L30.5 442V464.5ZM30.5 464.5V481L53 469V452.5L30.5 464.5ZM93.5 464.5L63 481V459L93.5 442V464.5ZM93.5 464.5V481L116 469V452.5L93.5 464.5ZM156.5 464.5L126 481V459L156.5 442V464.5ZM156.5 464.5V481L179 469V452.5L156.5 464.5ZM219.5 464.5L189 481V459L219.5 442V464.5ZM219.5 464.5V481L242 469V452.5L219.5 464.5ZM282.5 464.5L252 481V459L282.5 442V464.5ZM282.5 464.5V481L305 469V452.5L282.5 464.5Z" stroke="#E1E1E1"/>
</svg>
