<?xml version="1.0" encoding="utf-8"?><svg viewBox="0 0 502.66 502.66" xmlns="http://www.w3.org/2000/svg" xmlns:xlink="http://www.w3.org/1999/xlink"><style>:root>svg{display:none}:root>svg:target{display:block}</style><svg viewBox="0 0 20 20" id="arrow-triangle" xmlns="http://www.w3.org/2000/svg"><path d="M2.707 7.707l6.086 6.086a1 1 0 001.414 0l6.086-6.086c.63-.63.184-1.707-.707-1.707H3.414c-.89 0-1.337 1.077-.707 1.707z"/></svg><svg viewBox="0 0 24 24" id="aside-mail" xmlns="http://www.w3.org/2000/svg"><path d="M18.875 4.5A2.625 2.625 0 0121.5 7.125v9.75a2.625 2.625 0 01-2.625 2.625H5.125A2.625 2.625 0 012.5 16.875v-9.75A2.625 2.625 0 015.125 4.5h13.75zm1.375 4.675l-7.949 4.372a.623.623 0 01-.539.031l-.063-.03L3.75 9.175v7.7a1.375 1.375 0 001.375 1.375h13.75a1.375 1.375 0 001.375-1.375v-7.7zM18.875 5.75H5.125A1.375 1.375 0 003.75 7.125v.625L12 12.287l8.25-4.538v-.624a1.375 1.375 0 00-1.375-1.375z"/></svg><svg viewBox="0 0 24 24" id="aside-phone" xmlns="http://www.w3.org/2000/svg"><path fill-rule="evenodd" clip-rule="evenodd" d="M20.774 15.028l-4.429-1.985a1.312 1.312 0 00-1.297.154l-2.315 1.969a.176.176 0 01-.157.006c-1.488-.719-3.03-2.25-3.75-3.718a.179.179 0 010-.157L10.8 8.953a1.312 1.312 0 00.144-1.298l-1.97-4.422a1.312 1.312 0 00-1.365-.785A5.085 5.085 0 003.188 7.5c0 7.34 5.971 13.313 13.312 13.313a5.086 5.086 0 005.052-4.423 1.313 1.313 0 00-.778-1.362zM4.313 7.5c0 6.72 5.467 12.188 12.187 12.188a3.96 3.96 0 003.937-3.442.188.188 0 00-.114-.188l-4.43-1.984a.18.18 0 00-.15.01l-2.313 1.968a1.313 1.313 0 01-1.343.133c-1.722-.831-3.438-2.534-4.27-4.236a1.313 1.313 0 01.086-1.288.437.437 0 01.04-.053l1.98-2.35a.188.188 0 000-.156L7.944 3.685a.187.187 0 00-.172-.122H7.75A3.96 3.96 0 004.313 7.5z"/></svg><svg viewBox="0 0 502.664 502.664" id="icon" xmlns="http://www.w3.org/2000/svg"><path d="M153.821 358.226L0 274.337v-46.463l153.821-83.414v54.574L46.636 250.523l107.185 53.431v54.272zm26.273 29.358L282.103 115.08h32.227L212.084 387.584h-31.99zm168.749-29.358v-54.272l107.164-52.999-107.164-52.59v-53.927l153.821 83.522v46.183l-153.821 84.083z"/></svg></svg>