<svg width="120" height="40" viewBox="0 0 120 40" fill="none" xmlns="http://www.w3.org/2000/svg">
<path d="M31.2466 29.7767C33.5257 27.1628 34.9024 23.7395 34.9024 20C34.9024 15.507 32.921 11.4884 29.7769 8.75345" stroke="#E8EBE9" stroke-width="1.11628" stroke-linecap="round" stroke-linejoin="round"/>
<path d="M10.2231 31.2465C12.8371 33.5256 16.2604 34.9023 19.9999 34.9023C24.4929 34.9023 28.5115 32.9209 31.2464 29.7767" stroke="#E8EBE9" stroke-width="1.11628" stroke-linecap="round" stroke-linejoin="round"/>
<path d="M8.75347 10.2232C6.4744 12.8371 5.09766 16.2604 5.09766 19.9999C5.09766 24.4929 7.07905 28.5115 10.2233 31.2464" stroke="#E8EBE9" stroke-width="1.11628" stroke-linecap="round" stroke-linejoin="round"/>
<path d="M29.777 8.75347C27.163 6.4744 23.7397 5.09766 20.0002 5.09766C15.5072 5.09766 11.4886 7.07905 8.75366 10.2233" stroke="#E8EBE9" stroke-width="1.11628" stroke-linecap="round" stroke-linejoin="round"/>
<path d="M26.3441 26.4C26.3069 26.3628 26.2697 26.3349 26.2325 26.2977L13.6464 13.7023C13.6278 13.6837 13.5999 13.6558 13.5813 13.6372" stroke="#E8EBE9" stroke-width="1.11628" stroke-miterlimit="14.96" stroke-linecap="round" stroke-linejoin="round"/>
<path d="M26.6324 13.5442C26.5952 13.5814 26.558 13.6186 26.5301 13.6558L13.851 26.3256C13.8324 26.3442 13.8045 26.3721 13.7859 26.3907" stroke="#E8EBE9" stroke-width="1.11628" stroke-miterlimit="14.96" stroke-linecap="round" stroke-linejoin="round"/>
</svg>
